# Rhino

mtllib character_walk_13.mtl
g __
o object_1
usemtl diffuse_0_0_0_255
v 0.10000000149011612 0.017484204843640327 1.1126269102096558
v 0.10000000149011612 -0.0037723241839557886 1.0149122476577759
v 0.10000000149011612 0.3106282651424408 1.0488573312759399
v 0.10000000149011612 0.28937172889709473 0.95114266872406006
v 0.10000000149011612 0.3106282651424408 1.0488573312759399
v 0.10000000149011612 0.28937172889709473 0.95114266872406006
v 0.20000000298023224 0.3106282651424408 1.0488573312759399
v 0.20000000298023224 0.28937172889709473 0.95114266872406006
v 0.20000000298023224 0.3106282651424408 1.0488573312759399
v 0.20000000298023224 0.28937172889709473 0.95114266872406006
v 0.20000000298023224 0.017484204843640327 1.1126269102096558
v 0.20000000298023224 -0.0037723241839557886 1.0149122476577759
v 0.20000000298023224 0.017484204843640327 1.1126269102096558
v 0.20000000298023224 -0.0037723241839557886 1.0149122476577759
v 0.10000000149011612 0.017484204843640327 1.1126269102096558
v 0.10000000149011612 -0.0037723241839557886 1.0149122476577759
v 0.10000000149011612 0.017484204843640327 1.1126269102096558
v 0.10000000149011612 0.3106282651424408 1.0488573312759399
v 0.20000000298023224 0.3106282651424408 1.0488573312759399
v 0.20000000298023224 0.017484204843640327 1.1126269102096558
v 0.10000000149011612 -0.0037723241839557886 1.0149122476577759
v 0.10000000149011612 0.28937172889709473 0.95114266872406006
v 0.20000000298023224 0.28937172889709473 0.95114266872406006
v 0.20000000298023224 -0.0037723241839557886 1.0149122476577759
vt 0 0
vt 0 0.66666620969772339
vt 0.375 0
vt 0.375 0.66666620969772339
vt 0.375 0
vt 0.375 0.66666620969772339
vt 0.5 0
vt 0.5 0.66666620969772339
vt 0.5 0
vt 0.5 0.66666620969772339
vt 0.875 0
vt 0.875 0.66666620969772339
vt 0.875 0
vt 0.875 0.66666620969772339
vt 1 0
vt 1 0.66666620969772339
vt 0 1
vt 0.375 1
vt 0.375 0.66666686534881592
vt 0 0.66666686534881592
vt 0.625 0.66666686534881592
vt 1 0.66666686534881592
vt 1 1
vt 0.625 1
vn -1 0 0
vn -1 0 0
vn -1 0 0
vn -1 0 0
vn 0 0.97714686393737793 -0.21256528794765472
vn 0 0.97714686393737793 -0.21256528794765472
vn 0 0.97714686393737793 -0.21256528794765472
vn 0 0.97714686393737793 -0.21256528794765472
vn 1 0 0
vn 1 0 0
vn 1 0 0
vn 1 0 0
vn 0 -0.97714686393737793 0.21256528794765472
vn 0 -0.97714686393737793 0.21256528794765472
vn 0 -0.97714686393737793 0.21256528794765472
vn 0 -0.97714686393737793 0.21256528794765472
vn 0 0.21256528794765472 0.97714686393737793
vn 0 0.21256528794765472 0.97714686393737793
vn 0 0.21256528794765472 0.97714686393737793
vn 0 0.21256528794765472 0.97714686393737793
vn 0 -0.21256528794765472 -0.97714686393737793
vn 0 -0.21256528794765472 -0.97714686393737793
vn 0 -0.21256528794765472 -0.97714686393737793
vn 0 -0.21256528794765472 -0.97714686393737793
f 1/1/1 3/3/3 4/4/4 2/2/2
f 5/5/5 7/7/7 8/8/8 6/6/6
f 9/9/9 11/11/11 12/12/12 10/10/10
f 13/13/13 15/15/15 16/16/16 14/14/14
f 18/18/18 17/17/17 20/20/20
f 20/20/20 19/19/19 18/18/18
f 22/22/22 24/24/24 21/21/21
f 24/24/24 22/22/22 23/23/23
o object_2
usemtl diffuse_0_0_0_255
v -0.10000000149011612 0.31748420000076294 1.1126269102096558
v -0.10000000149011612 0.61062824726104736 1.0488573312759399
v 0 0.31748420000076294 1.1126269102096558
v 0 0.61062824726104736 1.0488573312759399
v 0 0.31748420000076294 1.1126269102096558
v 0 0.61062824726104736 1.0488573312759399
v 0 0.29622766375541687 1.0149122476577759
v 0 0.58937174081802368 0.95114266872406006
v 0 0.29622766375541687 1.0149122476577759
v 0 0.58937174081802368 0.95114266872406006
v -0.10000000149011612 0.29622766375541687 1.0149122476577759
v -0.10000000149011612 0.58937174081802368 0.95114266872406006
v -0.10000000149011612 0.29622766375541687 1.0149122476577759
v -0.10000000149011612 0.58937174081802368 0.95114266872406006
v -0.10000000149011612 0.31748420000076294 1.1126269102096558
v -0.10000000149011612 0.61062824726104736 1.0488573312759399
v -0.10000000149011612 0.31748420000076294 1.1126269102096558
v 0 0.31748420000076294 1.1126269102096558
v 0 0.29622766375541687 1.0149122476577759
v -0.10000000149011612 0.29622766375541687 1.0149122476577759
v -0.10000000149011612 0.61062824726104736 1.0488573312759399
v 0 0.61062824726104736 1.0488573312759399
v 0 0.58937174081802368 0.95114266872406006
v -0.10000000149011612 0.58937174081802368 0.95114266872406006
vt 0 0
vt 0 0.79999935626983643
vt 0.25 0
vt 0.25 0.79999935626983643
vt 0.25 0
vt 0.25 0.79999935626983643
vt 0.5 0
vt 0.5 0.79999935626983643
vt 0.5 0
vt 0.5 0.79999935626983643
vt 0.75 0
vt 0.75 0.79999935626983643
vt 0.75 0
vt 0.75 0.79999935626983643
vt 1 0
vt 1 0.79999935626983643
vt 0.25 1
vt 0.25 0.80000013113021851
vt 0 0.80000013113021851
vt 0 1
vt 1 0.80000013113021851
vt 1 1
vt 0.75 1
vt 0.75 0.80000013113021851
vn 0 0.21256528794765472 0.97714686393737793
vn 0 0.21256528794765472 0.97714686393737793
vn 0 0.21256528794765472 0.97714686393737793
vn 0 0.21256528794765472 0.97714686393737793
vn 1 0 0
vn 1 0 0
vn 1 0 0
vn 1 0 0
vn 0 -0.21256528794765472 -0.97714686393737793
vn 0 -0.21256528794765472 -0.97714686393737793
vn 0 -0.21256528794765472 -0.97714686393737793
vn 0 -0.21256528794765472 -0.97714686393737793
vn -1 0 0
vn -1 0 0
vn -1 0 0
vn -1 0 0
vn 0 -0.97714686393737793 0.21256528794765472
vn 0 -0.97714686393737793 0.21256528794765472
vn 0 -0.97714686393737793 0.21256528794765472
vn 0 -0.97714686393737793 0.21256528794765472
vn 0 0.97714686393737793 -0.21256528794765472
vn 0 0.97714686393737793 -0.21256528794765472
vn 0 0.97714686393737793 -0.21256528794765472
vn 0 0.97714686393737793 -0.21256528794765472
f 25/25/25 27/27/27 28/28/28 26/26/26
f 29/29/29 31/31/31 32/32/32 30/30/30
f 33/33/33 35/35/35 36/36/36 34/34/34
f 37/37/37 39/39/39 40/40/40 38/38/38
f 42/42/42 41/41/41 44/44/44
f 44/44/44 43/43/43 42/42/42
f 46/46/46 48/48/48 45/45/45
f 48/48/48 46/46/46 47/47/47
o object_3
usemtl diffuse_0_0_0_255
v 0 -0.0037723241839557886 0.98508775234222412
v 0 0.28937172889709473 1.0488573312759399
v 0.10000000149011612 -0.0037723241839557886 0.98508775234222412
v 0.10000000149011612 0.28937172889709473 1.0488573312759399
v 0.10000000149011612 -0.0037723241839557886 0.98508775234222412
v 0.10000000149011612 0.28937172889709473 1.0488573312759399
v 0.10000000149011612 0.017484204843640327 0.88737308979034424
v 0.10000000149011612 0.3106282651424408 0.95114266872406006
v 0.10000000149011612 0.017484204843640327 0.88737308979034424
v 0.10000000149011612 0.3106282651424408 0.95114266872406006
v 0 0.017484204843640327 0.88737308979034424
v 0 0.3106282651424408 0.95114266872406006
v 0 0.017484204843640327 0.88737308979034424
v 0 0.3106282651424408 0.95114266872406006
v 0 -0.0037723241839557886 0.98508775234222412
v 0 0.28937172889709473 1.0488573312759399
v 0 -0.0037723241839557886 0.98508775234222412
v 0.10000000149011612 -0.0037723241839557886 0.98508775234222412
v 0.10000000149011612 0.017484204843640327 0.88737308979034424
v 0 0.017484204843640327 0.88737308979034424
v 0 0.28937172889709473 1.0488573312759399
v 0.10000000149011612 0.28937172889709473 1.0488573312759399
v 0.10000000149011612 0.3106282651424408 0.95114266872406006
v 0 0.3106282651424408 0.95114266872406006
vt 0 0
vt 0 0.79999935626983643
vt 0.25 0
vt 0.25 0.79999935626983643
vt 0.25 0
vt 0.25 0.79999935626983643
vt 0.5 0
vt 0.5 0.79999935626983643
vt 0.5 0
vt 0.5 0.79999935626983643
vt 0.75 0
vt 0.75 0.79999935626983643
vt 0.75 0
vt 0.75 0.79999935626983643
vt 1 0
vt 1 0.79999935626983643
vt 0.25 1
vt 0.25 0.80000013113021851
vt 0 0.80000013113021851
vt 0 1
vt 1 0.80000013113021851
vt 1 1
vt 0.75 1
vt 0.75 0.80000013113021851
vn 0 -0.21256528794765472 0.97714686393737793
vn 0 -0.21256528794765472 0.97714686393737793
vn 0 -0.21256528794765472 0.97714686393737793
vn 0 -0.21256528794765472 0.97714686393737793
vn 1 0 0
vn 1 0 0
vn 1 0 0
vn 1 0 0
vn 0 0.21256528794765472 -0.97714686393737793
vn 0 0.21256528794765472 -0.97714686393737793
vn 0 0.21256528794765472 -0.97714686393737793
vn 0 0.21256528794765472 -0.97714686393737793
vn -1 0 0
vn -1 0 0
vn -1 0 0
vn -1 0 0
vn 0 -0.97714686393737793 -0.21256528794765472
vn 0 -0.97714686393737793 -0.21256528794765472
vn 0 -0.97714686393737793 -0.21256528794765472
vn 0 -0.97714686393737793 -0.21256528794765472
vn 0 0.97714686393737793 0.21256528794765472
vn 0 0.97714686393737793 0.21256528794765472
vn 0 0.97714686393737793 0.21256528794765472
vn 0 0.97714686393737793 0.21256528794765472
f 49/49/49 51/51/51 52/52/52 50/50/50
f 53/53/53 55/55/55 56/56/56 54/54/54
f 57/57/57 59/59/59 60/60/60 58/58/58
f 61/61/61 63/63/63 64/64/64 62/62/62
f 66/66/66 65/65/65 68/68/68
f 68/68/68 67/67/67 66/66/66
f 70/70/70 72/72/72 69/69/69
f 72/72/72 70/70/70 71/71/71
o object_4
usemtl diffuse_0_0_0_255
v 0.20000000298023224 0.29622766375541687 0.98508775234222412
v 0.20000000298023224 0.31748420000076294 0.88737308979034424
v 0.20000000298023224 0.58937174081802368 1.0488573312759399
v 0.20000000298023224 0.61062824726104736 0.95114266872406006
v 0.20000000298023224 0.58937174081802368 1.0488573312759399
v 0.20000000298023224 0.61062824726104736 0.95114266872406006
v 0.30000001192092896 0.58937174081802368 1.0488573312759399
v 0.30000001192092896 0.61062824726104736 0.95114266872406006
v 0.30000001192092896 0.58937174081802368 1.0488573312759399
v 0.30000001192092896 0.61062824726104736 0.95114266872406006
v 0.30000001192092896 0.29622766375541687 0.98508775234222412
v 0.30000001192092896 0.31748420000076294 0.88737308979034424
v 0.30000001192092896 0.29622766375541687 0.98508775234222412
v 0.30000001192092896 0.31748420000076294 0.88737308979034424
v 0.20000000298023224 0.29622766375541687 0.98508775234222412
v 0.20000000298023224 0.31748420000076294 0.88737308979034424
v 0.20000000298023224 0.29622766375541687 0.98508775234222412
v 0.20000000298023224 0.58937174081802368 1.0488573312759399
v 0.30000001192092896 0.58937174081802368 1.0488573312759399
v 0.30000001192092896 0.29622766375541687 0.98508775234222412
v 0.20000000298023224 0.31748420000076294 0.88737308979034424
v 0.20000000298023224 0.61062824726104736 0.95114266872406006
v 0.30000001192092896 0.61062824726104736 0.95114266872406006
v 0.30000001192092896 0.31748420000076294 0.88737308979034424
vt 0 0
vt 0 0.66666620969772339
vt 0.375 0
vt 0.375 0.66666620969772339
vt 0.375 0
vt 0.375 0.66666620969772339
vt 0.5 0
vt 0.5 0.66666620969772339
vt 0.5 0
vt 0.5 0.66666620969772339
vt 0.875 0
vt 0.875 0.66666620969772339
vt 0.875 0
vt 0.875 0.66666620969772339
vt 1 0
vt 1 0.66666620969772339
vt 0 1
vt 0.375 1
vt 0.375 0.66666686534881592
vt 0 0.66666686534881592
vt 0.625 0.66666686534881592
vt 1 0.66666686534881592
vt 1 1
vt 0.625 1
vn -1 0 0
vn -1 0 0
vn -1 0 0
vn -1 0 0
vn 0 0.97714686393737793 0.21256528794765472
vn 0 0.97714686393737793 0.21256528794765472
vn 0 0.97714686393737793 0.21256528794765472
vn 0 0.97714686393737793 0.21256528794765472
vn 1 0 0
vn 1 0 0
vn 1 0 0
vn 1 0 0
vn 0 -0.97714686393737793 -0.21256528794765472
vn 0 -0.97714686393737793 -0.21256528794765472
vn 0 -0.97714686393737793 -0.21256528794765472
vn 0 -0.97714686393737793 -0.21256528794765472
vn 0 -0.21256528794765472 0.97714686393737793
vn 0 -0.21256528794765472 0.97714686393737793
vn 0 -0.21256528794765472 0.97714686393737793
vn 0 -0.21256528794765472 0.97714686393737793
vn 0 0.21256528794765472 -0.97714686393737793
vn 0 0.21256528794765472 -0.97714686393737793
vn 0 0.21256528794765472 -0.97714686393737793
vn 0 0.21256528794765472 -0.97714686393737793
f 73/73/73 75/75/75 76/76/76 74/74/74
f 77/77/77 79/79/79 80/80/80 78/78/78
f 81/81/81 83/83/83 84/84/84 82/82/82
f 85/85/85 87/87/87 88/88/88 86/86/86
f 90/90/90 89/89/89 92/92/92
f 92/92/92 91/91/91 90/90/90
f 94/94/94 96/96/96 93/93/93
f 96/96/96 94/94/94 95/95/95
o object_5
usemtl diffuse_0_0_0_255
v 0 0.30000001192092896 1.0499999523162842
v 0 0.60000002384185791 1.0499999523162842
v 0.20000000298023224 0.30000001192092896 1.0499999523162842
v 0.20000000298023224 0.60000002384185791 1.0499999523162842
v 0.20000000298023224 0.30000001192092896 1.0499999523162842
v 0.20000000298023224 0.60000002384185791 1.0499999523162842
v 0.20000000298023224 0.30000001192092896 0.94999998807907104
v 0.20000000298023224 0.60000002384185791 0.94999998807907104
v 0.20000000298023224 0.30000001192092896 0.94999998807907104
v 0.20000000298023224 0.60000002384185791 0.94999998807907104
v 0 0.30000001192092896 0.94999998807907104
v 0 0.60000002384185791 0.94999998807907104
v 0 0.30000001192092896 0.94999998807907104
v 0 0.60000002384185791 0.94999998807907104
v 0 0.30000001192092896 1.0499999523162842
v 0 0.60000002384185791 1.0499999523162842
v 0 0.30000001192092896 1.0499999523162842
v 0.20000000298023224 0.30000001192092896 1.0499999523162842
v 0.20000000298023224 0.30000001192092896 0.94999998807907104
v 0 0.30000001192092896 0.94999998807907104
v 0 0.60000002384185791 1.0499999523162842
v 0.20000000298023224 0.60000002384185791 1.0499999523162842
v 0.20000000298023224 0.60000002384185791 0.94999998807907104
v 0 0.60000002384185791 0.94999998807907104
vt 0 0
vt 0 0.79999935626983643
vt 0.3333333432674408 0
vt 0.3333333432674408 0.79999935626983643
vt 0.3333333432674408 0
vt 0.3333333432674408 0.79999935626983643
vt 0.5 0
vt 0.5 0.79999935626983643
vt 0.5 0
vt 0.5 0.79999935626983643
vt 0.83333331346511841 0
vt 0.83333331346511841 0.79999935626983643
vt 0.83333331346511841 0
vt 0.83333331346511841 0.79999935626983643
vt 1 0
vt 1 0.79999935626983643
vt 0 1
vt 0.3333333432674408 1
vt 0.3333333432674408 0.80000013113021851
vt 0 0.80000013113021851
vt 0.66666668653488159 0.80000013113021851
vt 1 0.80000013113021851
vt 1 1
vt 0.66666668653488159 1
vn 0 0 1
vn 0 0 1
vn 0 0 1
vn 0 0 1
vn 1 0 0
vn 1 0 0
vn 1 0 0
vn 1 0 0
vn 0 0 -1
vn 0 0 -1
vn 0 0 -1
vn 0 0 -1
vn -1 0 0
vn -1 0 0
vn -1 0 0
vn -1 0 0
vn 0 -1 0
vn 0 -1 0
vn 0 -1 0
vn 0 -1 0
vn 0 1 0
vn 0 1 0
vn 0 1 0
vn 0 1 0
f 97/97/97 99/99/99 100/100/100 98/98/98
f 101/101/101 103/103/103 104/104/104 102/102/102
f 105/105/105 107/107/107 108/108/108 106/106/106
f 109/109/109 111/111/111 112/112/112 110/110/110
f 114/114/114 113/113/113 116/116/116
f 116/116/116 115/115/115 114/114/114
f 118/118/118 120/120/120 117/117/117
f 120/120/120 118/118/118 119/119/119
o object_6
usemtl diffuse_0_0_0_255
v 0 0.60000002384185791 1.1000000238418579
v 0 0.80000001192092896 1.1000000238418579
v 0.20000000298023224 0.60000002384185791 1.1000000238418579
v 0.20000000298023224 0.80000001192092896 1.1000000238418579
v 0.20000000298023224 0.60000002384185791 1.1000000238418579
v 0.20000000298023224 0.80000001192092896 1.1000000238418579
v 0.20000000298023224 0.60000002384185791 0.89999997615814209
v 0.20000000298023224 0.80000001192092896 0.89999997615814209
v 0.20000000298023224 0.60000002384185791 0.89999997615814209
v 0.20000000298023224 0.80000001192092896 0.89999997615814209
v 0 0.60000002384185791 0.89999997615814209
v 0 0.80000001192092896 0.89999997615814209
v 0 0.60000002384185791 0.89999997615814209
v 0 0.80000001192092896 0.89999997615814209
v 0 0.60000002384185791 1.1000000238418579
v 0 0.80000001192092896 1.1000000238418579
v 0 0.60000002384185791 1.1000000238418579
v 0.20000000298023224 0.60000002384185791 1.1000000238418579
v 0.20000000298023224 0.60000002384185791 0.89999997615814209
v 0 0.60000002384185791 0.89999997615814209
v 0 0.80000001192092896 1.1000000238418579
v 0.20000000298023224 0.80000001192092896 1.1000000238418579
v 0.20000000298023224 0.80000001192092896 0.89999997615814209
v 0 0.80000001192092896 0.89999997615814209
vt 0 0
vt 0 0.66666620969772339
vt 0.25 0
vt 0.25 0.66666620969772339
vt 0.25 0
vt 0.25 0.66666620969772339
vt 0.5 0
vt 0.5 0.66666620969772339
vt 0.5 0
vt 0.5 0.66666620969772339
vt 0.75 0
vt 0.75 0.66666620969772339
vt 0.75 0
vt 0.75 0.66666620969772339
vt 1 0
vt 1 0.66666620969772339
vt 0 1
vt 0.25 1
vt 0.25 0.66666686534881592
vt 0 0.66666686534881592
vt 0.75 0.66666686534881592
vt 1 0.66666686534881592
vt 1 1
vt 0.75 1
vn 0 0 1
vn 0 0 1
vn 0 0 1
vn 0 0 1
vn 1 0 0
vn 1 0 0
vn 1 0 0
vn 1 0 0
vn 0 0 -1
vn 0 0 -1
vn 0 0 -1
vn 0 0 -1
vn -1 0 0
vn -1 0 0
vn -1 0 0
vn -1 0 0
vn 0 -1 0
vn 0 -1 0
vn 0 -1 0
vn 0 -1 0
vn 0 1 0
vn 0 1 0
vn 0 1 0
vn 0 1 0
f 121/121/121 123/123/123 124/124/124 122/122/122
f 125/125/125 127/127/127 128/128/128 126/126/126
f 129/129/129 131/131/131 132/132/132 130/130/130
f 133/133/133 135/135/135 136/136/136 134/134/134
f 138/138/138 137/137/137 140/140/140
f 140/140/140 139/139/139 138/138/138
f 142/142/142 144/144/144 141/141/141
f 144/144/144 142/142/142 143/143/143
