# Rhino

mtllib character_walk_03.mtl
g __
o object_1
usemtl 自定义 (1)
v 0.10000000149011612 0.012824133038520813 -0.20014999806880951
v 0.10000000149011612 0.060828231275081635 -0.28787460923194885
v 0.10000000149011612 0.27599793672561646 -0.056137695908546448
v 0.10000000149011612 0.32400205731391907 -0.14386230707168579
v 0.10000000149011612 0.27599793672561646 -0.056137695908546448
v 0.10000000149011612 0.32400205731391907 -0.14386230707168579
v 0.20000000298023224 0.27599793672561646 -0.056137695908546448
v 0.20000000298023224 0.32400205731391907 -0.14386230707168579
v 0.20000000298023224 0.27599793672561646 -0.056137695908546448
v 0.20000000298023224 0.32400205731391907 -0.14386230707168579
v 0.20000000298023224 0.012824133038520813 -0.20014999806880951
v 0.20000000298023224 0.060828231275081635 -0.28787460923194885
v 0.20000000298023224 0.012824133038520813 -0.20014999806880951
v 0.20000000298023224 0.060828231275081635 -0.28787460923194885
v 0.10000000149011612 0.012824133038520813 -0.20014999806880951
v 0.10000000149011612 0.060828231275081635 -0.28787460923194885
v 0.10000000149011612 0.012824133038520813 -0.20014999806880951
v 0.10000000149011612 0.27599793672561646 -0.056137695908546448
v 0.20000000298023224 0.27599793672561646 -0.056137695908546448
v 0.20000000298023224 0.012824133038520813 -0.20014999806880951
v 0.10000000149011612 0.060828231275081635 -0.28787460923194885
v 0.10000000149011612 0.32400205731391907 -0.14386230707168579
v 0.20000000298023224 0.32400205731391907 -0.14386230707168579
v 0.20000000298023224 0.060828231275081635 -0.28787460923194885
vt 0.94553357362747192 0.51503187417984009
vt 0.89884763956069946 0.51503193378448486
vt 0.94553357362747192 0.65508949756622314
vt 0.89884763956069946 0.65508949756622314
vt 0.6832854151725769 0.27468419075012207
vt 0.6832854151725769 0.24670635163784027
vt 0.63659948110580444 0.27468419075012207
vt 0.63659948110580444 0.24670635163784027
vt 0.95072048902511597 0.49942335486412048
vt 0.99740630388259888 0.49942329525947571
vt 0.95072048902511597 0.35936564207077026
vt 0.99740636348724365 0.35936564207077026
vt 0.84178680181503296 0.38729909062385559
vt 0.84178680181503296 0.35932126641273499
vt 0.7951008677482605 0.38729909062385559
vt 0.7951008677482605 0.35932126641273499
vt 0.7951008677482605 0.38729909062385559
vt 0.7951008677482605 0.49942094087600708
vt 0.84178680181503296 0.49942094087600708
vt 0.84178680181503296 0.38729909062385559
vt 0.6832854151725769 0.13458448648452759
vt 0.6832854151725769 0.24670635163784027
vt 0.63659948110580444 0.24670635163784027
vt 0.63659948110580444 0.13458448648452759
vn -1 0 0
vn -1 0 0
vn -1 0 0
vn -1 0 0
vn 0 0.87724608182907104 0.48004099726676941
vn 0 0.87724608182907104 0.48004099726676941
vn 0 0.87724608182907104 0.48004099726676941
vn 0 0.87724608182907104 0.48004099726676941
vn 1 0 0
vn 1 0 0
vn 1 0 0
vn 1 0 0
vn 0 -0.87724608182907104 -0.48004099726676941
vn 0 -0.87724608182907104 -0.48004099726676941
vn 0 -0.87724608182907104 -0.48004099726676941
vn 0 -0.87724608182907104 -0.48004099726676941
vn 0 -0.48004099726676941 0.87724608182907104
vn 0 -0.48004099726676941 0.87724608182907104
vn 0 -0.48004099726676941 0.87724608182907104
vn 0 -0.48004099726676941 0.87724608182907104
vn 0 0.48004099726676941 -0.87724608182907104
vn 0 0.48004099726676941 -0.87724608182907104
vn 0 0.48004099726676941 -0.87724608182907104
vn 0 0.48004099726676941 -0.87724608182907104
f 1/1/1 3/3/3 4/4/4 2/2/2
f 5/5/5 7/7/7 8/8/8 6/6/6
f 9/9/9 11/11/11 12/12/12 10/10/10
f 13/13/13 15/15/15 16/16/16 14/14/14
f 18/18/18 17/17/17 20/20/20
f 20/20/20 19/19/19 18/18/18
f 22/22/22 24/24/24 21/21/21
f 24/24/24 22/22/22 23/23/23
o object_2
usemtl 自定义 (1)
v 0 0.060828231275081635 0.087874598801136017
v 0 0.32400205731391907 -0.056137695908546448
v 0.10000000149011612 0.060828231275081635 0.087874598801136017
v 0.10000000149011612 0.32400205731391907 -0.056137695908546448
v 0.10000000149011612 0.060828231275081635 0.087874598801136017
v 0.10000000149011612 0.32400205731391907 -0.056137695908546448
v 0.10000000149011612 0.012824133038520813 0.00014999552513472736
v 0.10000000149011612 0.27599793672561646 -0.14386230707168579
v 0.10000000149011612 0.012824133038520813 0.00014999552513472736
v 0.10000000149011612 0.27599793672561646 -0.14386230707168579
v 0 0.012824133038520813 0.00014999552513472736
v 0 0.27599793672561646 -0.14386230707168579
v 0 0.012824133038520813 0.00014999552513472736
v 0 0.27599793672561646 -0.14386230707168579
v 0 0.060828231275081635 0.087874598801136017
v 0 0.32400205731391907 -0.056137695908546448
v 0 0.060828231275081635 0.087874598801136017
v 0.10000000149011612 0.060828231275081635 0.087874598801136017
v 0.10000000149011612 0.012824133038520813 0.00014999552513472736
v 0 0.012824133038520813 0.00014999552513472736
v 0 0.32400205731391907 -0.056137695908546448
v 0.10000000149011612 0.32400205731391907 -0.056137695908546448
v 0.10000000149011612 0.27599793672561646 -0.14386230707168579
v 0 0.27599793672561646 -0.14386230707168579
vt 0.68847274780273438 0.13458448648452759
vt 0.68847274780273438 0.24670636653900146
vt 0.73515868186950684 0.13458448648452759
vt 0.73515868186950684 0.24670636653900146
vt 0.89596575498580933 0.13458219170570374
vt 0.8959658145904541 0.27463969588279724
vt 0.94265168905258179 0.13458219170570374
vt 0.94265174865722656 0.27463969588279724
vt 0.74034601449966431 0.16256231069564819
vt 0.74034601449966431 0.27468419075012207
vt 0.78703194856643677 0.16256231069564819
vt 0.78703194856643677 0.27468419075012207
vt 0.89980810880661011 0.72632032632827759
vt 0.89980804920196533 0.86637800931930542
vt 0.94649392366409302 0.72632032632827759
vt 0.94649386405944824 0.8663780689239502
vt 0.78703194856643677 0.13458448648452759
vt 0.74034601449966431 0.13458448648452759
vt 0.74034601449966431 0.16256231069564819
vt 0.78703194856643677 0.16256231069564819
vt 0.68847274780273438 0.24670636653900146
vt 0.73515868186950684 0.24670636653900146
vt 0.73515868186950684 0.27468419075012207
vt 0.68847274780273438 0.27468419075012207
vn 0 0.48004099726676941 0.87724608182907104
vn 0 0.48004099726676941 0.87724608182907104
vn 0 0.48004099726676941 0.87724608182907104
vn 0 0.48004099726676941 0.87724608182907104
vn 1 0 0
vn 1 0 0
vn 1 0 0
vn 1 0 0
vn 0 -0.48004099726676941 -0.87724608182907104
vn 0 -0.48004099726676941 -0.87724608182907104
vn 0 -0.48004099726676941 -0.87724608182907104
vn 0 -0.48004099726676941 -0.87724608182907104
vn -1 0 0
vn -1 0 0
vn -1 0 0
vn -1 0 0
vn 0 -0.87724608182907104 0.48004099726676941
vn 0 -0.87724608182907104 0.48004099726676941
vn 0 -0.87724608182907104 0.48004099726676941
vn 0 -0.87724608182907104 0.48004099726676941
vn 0 0.87724608182907104 -0.48004099726676941
vn 0 0.87724608182907104 -0.48004099726676941
vn 0 0.87724608182907104 -0.48004099726676941
vn 0 0.87724608182907104 -0.48004099726676941
f 25/25/25 27/27/27 28/28/28 26/26/26
f 29/29/29 31/31/31 32/32/32 30/30/30
f 33/33/33 35/35/35 36/36/36 34/34/34
f 37/37/37 39/39/39 40/40/40 38/38/38
f 42/42/42 41/41/41 44/44/44
f 44/44/44 43/43/43 42/42/42
f 46/46/46 48/48/48 45/45/45
f 48/48/48 46/46/46 47/47/47
o object_3
usemtl 自定义 (1)
v -0.10000000149011612 0.31282413005828857 -0.20014999806880951
v -0.10000000149011612 0.57599794864654541 -0.056137695908546448
v 0 0.31282413005828857 -0.20014999806880951
v 0 0.57599794864654541 -0.056137695908546448
v 0 0.31282413005828857 -0.20014999806880951
v 0 0.57599794864654541 -0.056137695908546448
v 0 0.3608282208442688 -0.28787460923194885
v 0 0.62400203943252563 -0.14386230707168579
v 0 0.3608282208442688 -0.28787460923194885
v 0 0.62400203943252563 -0.14386230707168579
v -0.10000000149011612 0.3608282208442688 -0.28787460923194885
v -0.10000000149011612 0.62400203943252563 -0.14386230707168579
v -0.10000000149011612 0.3608282208442688 -0.28787460923194885
v -0.10000000149011612 0.62400203943252563 -0.14386230707168579
v -0.10000000149011612 0.31282413005828857 -0.20014999806880951
v -0.10000000149011612 0.57599794864654541 -0.056137695908546448
v -0.10000000149011612 0.31282413005828857 -0.20014999806880951
v 0 0.31282413005828857 -0.20014999806880951
v 0 0.3608282208442688 -0.28787460923194885
v -0.10000000149011612 0.3608282208442688 -0.28787460923194885
v -0.10000000149011612 0.57599794864654541 -0.056137695908546448
v 0 0.57599794864654541 -0.056137695908546448
v 0 0.62400203943252563 -0.14386230707168579
v -0.10000000149011612 0.62400203943252563 -0.14386230707168579
vt 0.79510092735290527 0.5429653525352478
vt 0.79510092735290527 0.65508723258972168
vt 0.84178686141967773 0.5429653525352478
vt 0.84178686141967773 0.65508723258972168
vt 0.89884722232818604 0.35936564207077026
vt 0.89884728193283081 0.49942326545715332
vt 0.94553303718566895 0.35936564207077026
vt 0.9455331563949585 0.49942326545715332
vt 0.84409254789352417 0.13458453118801117
vt 0.84409254789352417 0.24670647084712982
vt 0.89077842235565186 0.13458453118801117
vt 0.89077842235565186 0.24670647084712982
vt 0.84697443246841431 0.51503187417984009
vt 0.84697419404983521 0.6550896167755127
vt 0.89366030693054199 0.51503187417984009
vt 0.89366006851196289 0.6550896167755127
vt 0.79510092735290527 0.5429653525352478
vt 0.84178686141967773 0.5429653525352478
vt 0.84178686141967773 0.51498758792877197
vt 0.79510092735290527 0.51498758792877197
vt 0.89077842235565186 0.27468413114547729
vt 0.84409254789352417 0.27468413114547729
vt 0.84409254789352417 0.24670647084712982
vt 0.89077842235565186 0.24670647084712982
vn 0 -0.48004099726676941 0.87724608182907104
vn 0 -0.48004099726676941 0.87724608182907104
vn 0 -0.48004099726676941 0.87724608182907104
vn 0 -0.48004099726676941 0.87724608182907104
vn 1 0 0
vn 1 0 0
vn 1 0 0
vn 1 0 0
vn 0 0.48004099726676941 -0.87724608182907104
vn 0 0.48004099726676941 -0.87724608182907104
vn 0 0.48004099726676941 -0.87724608182907104
vn 0 0.48004099726676941 -0.87724608182907104
vn -1 0 0
vn -1 0 0
vn -1 0 0
vn -1 0 0
vn 0 -0.87724608182907104 -0.48004099726676941
vn 0 -0.87724608182907104 -0.48004099726676941
vn 0 -0.87724608182907104 -0.48004099726676941
vn 0 -0.87724608182907104 -0.48004099726676941
vn 0 0.87724608182907104 0.48004099726676941
vn 0 0.87724608182907104 0.48004099726676941
vn 0 0.87724608182907104 0.48004099726676941
vn 0 0.87724608182907104 0.48004099726676941
f 49/49/49 51/51/51 52/52/52 50/50/50
f 53/53/53 55/55/55 56/56/56 54/54/54
f 57/57/57 59/59/59 60/60/60 58/58/58
f 61/61/61 63/63/63 64/64/64 62/62/62
f 66/66/66 65/65/65 68/68/68
f 68/68/68 67/67/67 66/66/66
f 70/70/70 72/72/72 69/69/69
f 72/72/72 70/70/70 71/71/71
o object_4
usemtl 自定义 (1)
v 0.20000000298023224 0.3608282208442688 0.087874598801136017
v 0.20000000298023224 0.31282413005828857 0.00014999552513472736
v 0.20000000298023224 0.62400203943252563 -0.056137695908546448
v 0.20000000298023224 0.57599794864654541 -0.14386230707168579
v 0.20000000298023224 0.62400203943252563 -0.056137695908546448
v 0.20000000298023224 0.57599794864654541 -0.14386230707168579
v 0.30000001192092896 0.62400203943252563 -0.056137695908546448
v 0.30000001192092896 0.57599794864654541 -0.14386230707168579
v 0.30000001192092896 0.62400203943252563 -0.056137695908546448
v 0.30000001192092896 0.57599794864654541 -0.14386230707168579
v 0.30000001192092896 0.3608282208442688 0.087874598801136017
v 0.30000001192092896 0.31282413005828857 0.00014999552513472736
v 0.30000001192092896 0.3608282208442688 0.087874598801136017
v 0.30000001192092896 0.31282413005828857 0.00014999552513472736
v 0.20000000298023224 0.3608282208442688 0.087874598801136017
v 0.20000000298023224 0.31282413005828857 0.00014999552513472736
v 0.20000000298023224 0.3608282208442688 0.087874598801136017
v 0.20000000298023224 0.62400203943252563 -0.056137695908546448
v 0.30000001192092896 0.62400203943252563 -0.056137695908546448
v 0.30000001192092896 0.3608282208442688 0.087874598801136017
v 0.20000000298023224 0.31282413005828857 0.00014999552513472736
v 0.20000000298023224 0.57599794864654541 -0.14386230707168579
v 0.30000001192092896 0.57599794864654541 -0.14386230707168579
v 0.30000001192092896 0.31282413005828857 0.00014999552513472736
vt 0.99452495574951172 0.1345822662115097
vt 0.94783908128738403 0.13458220660686493
vt 0.99452495574951172 0.27463990449905396
vt 0.94783908128738403 0.2746397852897644
vt 0.84697407484054565 0.47144317626953125
vt 0.84697407484054565 0.49942094087600708
vt 0.89365988969802856 0.47144317626953125
vt 0.89365988969802856 0.49942094087600708
vt 0.8479347825050354 0.86637800931930542
vt 0.89462071657180786 0.86637794971466064
vt 0.8479347825050354 0.72632032632827759
vt 0.89462071657180786 0.72632032632827759
vt 0.79221928119659424 0.13458447158336639
vt 0.79221928119659424 0.16256225109100342
vt 0.8389052152633667 0.13458447158336639
vt 0.8389052152633667 0.16256225109100342
vt 0.84697407484054565 0.35932129621505737
vt 0.84697407484054565 0.47144317626953125
vt 0.89365988969802856 0.47144317626953125
vt 0.89365988969802856 0.35932129621505737
vt 0.8389052152633667 0.16256225109100342
vt 0.8389052152633667 0.27468413114547729
vt 0.79221928119659424 0.27468413114547729
vt 0.79221928119659424 0.16256225109100342
vn -1 0 0
vn -1 0 0
vn -1 0 0
vn -1 0 0
vn 0 0.87724608182907104 -0.48004099726676941
vn 0 0.87724608182907104 -0.48004099726676941
vn 0 0.87724608182907104 -0.48004099726676941
vn 0 0.87724608182907104 -0.48004099726676941
vn 1 0 0
vn 1 0 0
vn 1 0 0
vn 1 0 0
vn 0 -0.87724608182907104 0.48004099726676941
vn 0 -0.87724608182907104 0.48004099726676941
vn 0 -0.87724608182907104 0.48004099726676941
vn 0 -0.87724608182907104 0.48004099726676941
vn 0 0.48004099726676941 0.87724608182907104
vn 0 0.48004099726676941 0.87724608182907104
vn 0 0.48004099726676941 0.87724608182907104
vn 0 0.48004099726676941 0.87724608182907104
vn 0 -0.48004099726676941 -0.87724608182907104
vn 0 -0.48004099726676941 -0.87724608182907104
vn 0 -0.48004099726676941 -0.87724608182907104
vn 0 -0.48004099726676941 -0.87724608182907104
f 73/73/73 75/75/75 76/76/76 74/74/74
f 77/77/77 79/79/79 80/80/80 78/78/78
f 81/81/81 83/83/83 84/84/84 82/82/82
f 85/85/85 87/87/87 88/88/88 86/86/86
f 90/90/90 89/89/89 92/92/92
f 92/92/92 91/91/91 90/90/90
f 94/94/94 96/96/96 93/93/93
f 96/96/96 94/94/94 95/95/95
o object_5
usemtl 自定义 (1)
v 0 0.30000001192092896 -0.05000000074505806
v 0 0.60000002384185791 -0.05000000074505806
v 0.20000000298023224 0.30000001192092896 -0.05000000074505806
v 0.20000000298023224 0.60000002384185791 -0.05000000074505806
v 0.20000000298023224 0.30000001192092896 -0.05000000074505806
v 0.20000000298023224 0.60000002384185791 -0.05000000074505806
v 0.20000000298023224 0.30000001192092896 -0.15000000596046448
v 0.20000000298023224 0.60000002384185791 -0.15000000596046448
v 0.20000000298023224 0.30000001192092896 -0.15000000596046448
v 0.20000000298023224 0.60000002384185791 -0.15000000596046448
v 0 0.30000001192092896 -0.15000000596046448
v 0 0.60000002384185791 -0.15000000596046448
v 0 0.30000001192092896 -0.15000000596046448
v 0 0.60000002384185791 -0.15000000596046448
v 0 0.30000001192092896 -0.05000000074505806
v 0 0.60000002384185791 -0.05000000074505806
v 0 0.30000001192092896 -0.05000000074505806
v 0.20000000298023224 0.30000001192092896 -0.05000000074505806
v 0.20000000298023224 0.30000001192092896 -0.15000000596046448
v 0 0.30000001192092896 -0.15000000596046448
v 0 0.60000002384185791 -0.05000000074505806
v 0.20000000298023224 0.60000002384185791 -0.05000000074505806
v 0.20000000298023224 0.60000002384185791 -0.15000000596046448
v 0 0.60000002384185791 -0.15000000596046448
vt 0.031700301915407181 0.025360219180583954
vt 0.031700301915407181 0.48184403777122498
vt 0.22190208733081818 0.025360219180583954
vt 0.22190208733081818 0.48184403777122498
vt 0.22190208733081818 0.025360219180583954
vt 0.22190208733081818 0.48184403777122498
vt 0.31700292229652405 0.025360219180583954
vt 0.31700292229652405 0.48184403777122498
vt 0.31700292229652405 0.025360219180583954
vt 0.31700292229652405 0.48184403777122498
vt 0.50720465183258057 0.025360219180583954
vt 0.50720465183258057 0.48184403777122498
vt 0.50720465183258057 0.025360219180583954
vt 0.50720465183258057 0.48184403777122498
vt 0.60230553150177002 0.025360219180583954
vt 0.60230553150177002 0.48184403777122498
vt 0.64457261562347412 0.83900034427642822
vt 0.83477437496185303 0.83900034427642822
vt 0.83477437496185303 0.72487938404083252
vt 0.64457261562347412 0.72487938404083252
vt 0.64457261562347412 0.0063400589860975742
vt 0.83477437496185303 0.0063400589860975742
vt 0.83477437496185303 0.120461106300354
vt 0.64457261562347412 0.120461106300354
vn 0 0 1
vn 0 0 1
vn 0 0 1
vn 0 0 1
vn 1 0 0
vn 1 0 0
vn 1 0 0
vn 1 0 0
vn 0 0 -1
vn 0 0 -1
vn 0 0 -1
vn 0 0 -1
vn -1 0 0
vn -1 0 0
vn -1 0 0
vn -1 0 0
vn 0 -1 0
vn 0 -1 0
vn 0 -1 0
vn 0 -1 0
vn 0 1 0
vn 0 1 0
vn 0 1 0
vn 0 1 0
f 97/97/97 99/99/99 100/100/100 98/98/98
f 101/101/101 103/103/103 104/104/104 102/102/102
f 105/105/105 107/107/107 108/108/108 106/106/106
f 109/109/109 111/111/111 112/112/112 110/110/110
f 114/114/114 113/113/113 116/116/116
f 116/116/116 115/115/115 114/114/114
f 118/118/118 120/120/120 117/117/117
f 120/120/120 118/118/118 119/119/119
o object_6
usemtl 自定义 (1)
v 0 0.60000002384185791 0
v 0 0.80000001192092896 0
v 0.20000000298023224 0.60000002384185791 0
v 0.20000000298023224 0.80000001192092896 0
v 0.20000000298023224 0.60000002384185791 0
v 0.20000000298023224 0.80000001192092896 0
v 0.20000000298023224 0.60000002384185791 -0.20000000298023224
v 0.20000000298023224 0.80000001192092896 -0.20000000298023224
v 0.20000000298023224 0.60000002384185791 -0.20000000298023224
v 0.20000000298023224 0.80000001192092896 -0.20000000298023224
v 0 0.60000002384185791 -0.20000000298023224
v 0 0.80000001192092896 -0.20000000298023224
v 0 0.60000002384185791 -0.20000000298023224
v 0 0.80000001192092896 -0.20000000298023224
v 0 0.60000002384185791 0
v 0 0.80000001192092896 0
v 0 0.60000002384185791 0
v 0.20000000298023224 0.60000002384185791 0
v 0.20000000298023224 0.60000002384185791 -0.20000000298023224
v 0 0.60000002384185791 -0.20000000298023224
v 0 0.80000001192092896 0
v 0.20000000298023224 0.80000001192092896 0
v 0.20000000298023224 0.80000001192092896 -0.20000000298023224
v 0 0.80000001192092896 -0.20000000298023224
vt 0.031700301915407181 0.52833777666091919
vt 0.031700301915407181 0.90874099731445312
vt 0.17435161769390106 0.52833777666091919
vt 0.17435161769390106 0.90874099731445312
vt 0.17435161769390106 0.52833777666091919
vt 0.17435161769390106 0.90874099731445312
vt 0.31700292229652405 0.52833777666091919
vt 0.31700292229652405 0.90874099731445312
vt 0.31700292229652405 0.52833777666091919
vt 0.31700292229652405 0.90874099731445312
vt 0.45965424180030823 0.52833777666091919
vt 0.45965424180030823 0.90874099731445312
vt 0.45965424180030823 0.52833777666091919
vt 0.45965424180030823 0.90874099731445312
vt 0.60230553150177002 0.52833777666091919
vt 0.60230553150177002 0.90874099731445312
vt 0.64193087816238403 0.70797258615493774
vt 0.78458213806152344 0.70797258615493774
vt 0.78458213806152344 0.51777100563049316
vt 0.64193087816238403 0.51777100563049316
vt 0.64193087816238403 0.30643591284751892
vt 0.78458213806152344 0.30643591284751892
vt 0.78458213806152344 0.4966374933719635
vt 0.64193087816238403 0.4966374933719635
vn 0 0 1
vn 0 0 1
vn 0 0 1
vn 0 0 1
vn 1 0 0
vn 1 0 0
vn 1 0 0
vn 1 0 0
vn 0 0 -1
vn 0 0 -1
vn 0 0 -1
vn 0 0 -1
vn -1 0 0
vn -1 0 0
vn -1 0 0
vn -1 0 0
vn 0 -1 0
vn 0 -1 0
vn 0 -1 0
vn 0 -1 0
vn 0 1 0
vn 0 1 0
vn 0 1 0
vn 0 1 0
f 121/121/121 123/123/123 124/124/124 122/122/122
f 125/125/125 127/127/127 128/128/128 126/126/126
f 129/129/129 131/131/131 132/132/132 130/130/130
f 133/133/133 135/135/135 136/136/136 134/134/134
f 138/138/138 137/137/137 140/140/140
f 140/140/140 139/139/139 138/138/138
f 142/142/142 144/144/144 141/141/141
f 144/144/144 142/142/142 143/143/143
